<svg width="21" height="21" viewBox="0 0 21 21" fill="none" xmlns="http://www.w3.org/2000/svg">
<g id="edit/double_quotes_l">
<g id="Icon">
<path d="M14.2665 10.1257C15.5869 10.1257 16.4781 11.0448 16.4781 12.4065C16.4781 13.6319 15.4548 14.6532 14.0684 14.6532C12.55 14.6532 11.4276 13.4277 11.4276 11.5554C11.4276 7.30024 14.5305 5.59817 16.4781 5.39392L16.4781 7.2662C15.1577 7.50449 13.6723 8.8321 13.6063 10.2959C13.6723 10.2618 13.9364 10.1257 14.2665 10.1257Z" fill="#79819A"/>
<path d="M7.53246 10.1257C8.85286 10.1257 9.74412 11.0448 9.74412 12.4065C9.74412 13.6319 8.72082 14.6532 7.3344 14.6532C5.81595 14.6532 4.69362 13.4277 4.69362 11.5554C4.69362 7.30024 7.79654 5.59817 9.74412 5.39392V7.2662C8.42373 7.50449 6.93829 8.8321 6.87227 10.2959C6.93829 10.2618 7.20237 10.1257 7.53246 10.1257Z" fill="#79819A"/>
</g>
</g>
</svg>
