<svg width="21" height="21" viewBox="0 0 21 21" fill="none" xmlns="http://www.w3.org/2000/svg">
<g id="brand/dribbble">
<path id="Icon" d="M10.6465 18.5488C5.99762 18.5488 2.22897 14.7801 2.22897 10.1313C2.22897 5.48242 5.99762 1.71378 10.6465 1.71378C15.2953 1.71378 19.064 5.48242 19.064 10.1313C19.0589 14.778 15.2932 18.5437 10.6465 18.5488ZM6.53874 15.6405L6.53453 15.649C8.45629 17.0886 10.991 17.4184 13.2172 16.5185C12.8981 14.8024 12.4251 13.1186 11.8039 11.4873C10.3771 11.9848 9.07259 12.7805 7.97729 13.8215C7.4375 14.3326 6.9702 14.9152 6.5884 15.553L6.58251 15.5623V15.5538L6.56736 15.5833L6.55726 15.6001L6.55136 15.6111L6.53705 15.6414L6.53874 15.6405ZM14.6692 11.0109C14.2548 11.0115 13.8409 11.0396 13.4302 11.0951C13.9665 12.5938 14.3886 14.1311 14.6928 15.6936C16.1233 14.6624 17.0956 13.1143 17.4032 11.3779C16.5127 11.1322 15.593 11.0079 14.6692 11.0084V11.0109ZM3.75843 10.0934V10.1405C3.75997 11.7623 4.33379 13.3314 5.37881 14.5715C6.73258 12.4802 8.7351 10.8908 11.0791 10.0471L11.1793 10.0185C11.0303 9.68937 10.8906 9.39559 10.7509 9.12118C8.50501 9.75089 6.18512 10.0779 3.85271 10.0934H3.75843ZM14.4057 9.5833C15.4502 9.58715 16.4923 9.68235 17.5202 9.86782C17.4667 8.44392 16.9686 7.07253 16.096 5.9461C15.0777 7.08493 13.8102 7.97332 12.3923 8.54206L12.4167 8.53196L12.3906 8.5429C12.5413 8.85687 12.6734 9.15064 12.7837 9.41243C12.8098 9.47472 12.8317 9.52859 12.8519 9.58078L12.8864 9.66495C13.3909 9.60898 13.8982 9.58172 14.4057 9.5833ZM7.59682 3.96714C5.76627 4.87066 4.43115 6.54002 3.95204 8.52438C5.91364 8.49407 7.86582 8.24621 9.77275 7.78532H9.78369H9.79631L9.80473 7.77438L9.85019 7.76344H9.85524L9.88891 7.75671H9.89648H9.90237L9.92005 7.75165L9.95372 7.74324L9.97308 7.73482L9.9916 7.72977H10H10.0084C8.88638 5.75418 7.72477 4.14391 7.59598 3.96714H7.59682ZM10.6465 3.26173C10.1857 3.26059 9.7259 3.30429 9.27359 3.39223C10.1554 4.6141 10.9646 5.88678 11.697 7.20367C13.0085 6.73655 14.1783 5.94068 15.0943 4.89223C13.8508 3.84054 12.2751 3.26294 10.6465 3.26173Z" fill="white"/>
</g>
</svg>
