<svg width="17" height="17" viewBox="0 0 17 17" fill="none" xmlns="http://www.w3.org/2000/svg">
<g id="Icon">
<path id="Vector" d="M7.01773 2.08878C4.53372 2.57358 2.53202 4.57027 2.04221 7.04677C1.11758 11.7199 5.3334 15.2035 8.50964 14.7112C9.53923 14.5512 10.044 13.3467 9.57172 12.4196C8.99445 11.285 9.81912 9.96059 11.0936 9.96059H13.0853C13.98 9.96059 14.7047 9.22089 14.7072 8.32875C14.6947 4.39034 11.1111 1.2916 7.01773 2.08878ZM4.31131 9.96059C3.86898 9.96059 3.51163 9.60323 3.51163 9.16091C3.51163 8.71859 3.86898 8.36123 4.31131 8.36123C4.75363 8.36123 5.11099 8.71859 5.11099 9.16091C5.11099 9.60323 4.75363 9.96059 4.31131 9.96059ZM5.11099 6.76188C4.66867 6.76188 4.31131 6.40453 4.31131 5.96221C4.31131 5.51989 4.66867 5.16253 5.11099 5.16253C5.55332 5.16253 5.91067 5.51989 5.91067 5.96221C5.91067 6.40453 5.55332 6.76188 5.11099 6.76188ZM8.30972 5.16253C7.8674 5.16253 7.51004 4.80518 7.51004 4.36286C7.51004 3.92053 7.8674 3.56318 8.30972 3.56318C8.75204 3.56318 9.1094 3.92053 9.1094 4.36286C9.1094 4.80518 8.75204 5.16253 8.30972 5.16253ZM11.5084 6.76188C11.0661 6.76188 10.7088 6.40453 10.7088 5.96221C10.7088 5.51989 11.0661 5.16253 11.5084 5.16253C11.9508 5.16253 12.3081 5.51989 12.3081 5.96221C12.3081 6.40453 11.9508 6.76188 11.5084 6.76188Z" fill="#9251F7"/>
</g>
</svg>
