<svg width="21" height="21" viewBox="0 0 21 21" fill="none" xmlns="http://www.w3.org/2000/svg">
<g id="brand/LinkedIn">
<path id="Icon" d="M11.4882 18.2727H8.12121V8.17172H11.4882V9.85522C12.2059 8.94214 13.2943 8.39779 14.4554 8.37122C16.5434 8.38281 18.2283 10.082 18.2222 12.17V18.2727H14.8552V12.5909C14.7206 11.6504 13.9139 10.9525 12.9638 10.9545C12.5482 10.9677 12.1559 11.1496 11.8775 11.4584C11.599 11.7672 11.4585 12.1762 11.4882 12.5909V18.2727ZM6.43771 18.2727H3.07071V8.17172H6.43771V18.2727ZM4.75421 6.48822C3.82444 6.48822 3.07071 5.73449 3.07071 4.80472C3.07071 3.87495 3.82444 3.12122 4.75421 3.12122C5.68398 3.12122 6.43771 3.87495 6.43771 4.80472C6.43771 5.25121 6.26034 5.67942 5.94463 5.99513C5.62891 6.31085 5.2007 6.48822 4.75421 6.48822Z" fill="white"/>
</g>
</svg>
