<svg width="21" height="21" viewBox="0 0 21 21" fill="none" xmlns="http://www.w3.org/2000/svg">
<g id="brand/twitter">
<path id="Icon" d="M17.3763 5.94269C18.1308 5.49158 18.6954 4.78127 18.9647 3.94437C18.2556 4.36508 17.4798 4.66144 16.6709 4.82063C15.5493 3.63421 13.7723 3.34549 12.3328 4.1158C10.8934 4.88611 10.1477 6.52475 10.5126 8.11609C7.60827 7.97027 4.90234 6.59834 3.06819 4.34168C2.11099 5.9927 2.60014 8.10328 4.18604 9.16491C3.61256 9.14647 3.0518 8.9912 2.55052 8.71205C2.55052 8.7272 2.55052 8.74235 2.55052 8.7575C2.55085 10.4773 3.76295 11.9587 5.44867 12.2996C4.91673 12.4443 4.35877 12.4656 3.81735 12.3619C4.29143 13.8326 5.64694 14.8402 7.19193 14.8703C5.91233 15.8746 4.33206 16.4193 2.7054 16.4166C2.41708 16.417 2.12898 16.4004 1.84261 16.3669C3.49445 17.4284 5.41699 17.9918 7.38048 17.9898C10.1122 18.0086 12.7374 16.9317 14.669 14.9999C16.6005 13.0682 17.6772 10.4429 17.6583 7.71121C17.6583 7.55464 17.6546 7.39892 17.6473 7.24403C18.3548 6.73276 18.9653 6.09938 19.4503 5.37366C18.7913 5.6658 18.0922 5.85761 17.3763 5.94269Z" fill="white"/>
</g>
</svg>
